<svg width="19" height="19" viewBox="0 0 19 19" fill="none" xmlns="http://www.w3.org/2000/svg">
<path d="M3.60892 14.1545C4.40569 13.5452 5.2962 13.0646 6.28045 12.7128C7.26471 12.3616 8.29583 12.186 9.37381 12.186C10.4518 12.186 11.4829 12.3616 12.4672 12.7128C13.4514 13.0646 14.3419 13.5452 15.1387 14.1545C15.6855 13.5139 16.1114 12.7874 16.4164 11.975C16.7207 11.1626 16.8729 10.2956 16.8729 9.37381C16.8729 7.29595 16.1426 5.52649 14.6822 4.06542C13.2211 2.60498 11.4517 1.87476 9.37381 1.87476C7.29595 1.87476 5.5268 2.60498 4.06636 4.06542C2.6053 5.52649 1.87476 7.29595 1.87476 9.37381C1.87476 10.2956 2.02724 11.1626 2.3322 11.975C2.63654 12.7874 3.06211 13.5139 3.60892 14.1545ZM9.37381 10.3112C8.45205 10.3112 7.67465 9.99499 7.04161 9.36257C6.40919 8.72952 6.09298 7.95212 6.09298 7.03036C6.09298 6.1086 6.40919 5.3312 7.04161 4.69816C7.67465 4.06574 8.45205 3.74953 9.37381 3.74953C10.2956 3.74953 11.073 4.06574 11.706 4.69816C12.3384 5.3312 12.6546 6.1086 12.6546 7.03036C12.6546 7.95212 12.3384 8.72952 11.706 9.36257C11.073 9.99499 10.2956 10.3112 9.37381 10.3112ZM9.37381 18.7476C8.0771 18.7476 6.85851 18.5014 5.71803 18.009C4.57755 17.5172 3.58548 16.8494 2.74184 16.0058C1.8982 15.1621 1.23047 14.1701 0.738657 13.0296C0.246219 11.8891 0 10.6705 0 9.37381C0 8.0771 0.246219 6.85851 0.738657 5.71803C1.23047 4.57755 1.8982 3.58548 2.74184 2.74184C3.58548 1.8982 4.57755 1.23016 5.71803 0.737719C6.85851 0.245906 8.0771 0 9.37381 0C10.6705 0 11.8891 0.245906 13.0296 0.737719C14.1701 1.23016 15.1621 1.8982 16.0058 2.74184C16.8494 3.58548 17.5172 4.57755 18.009 5.71803C18.5014 6.85851 18.7476 8.0771 18.7476 9.37381C18.7476 10.6705 18.5014 11.8891 18.009 13.0296C17.5172 14.1701 16.8494 15.1621 16.0058 16.0058C15.1621 16.8494 14.1701 17.5172 13.0296 18.009C11.8891 18.5014 10.6705 18.7476 9.37381 18.7476ZM9.37381 16.8729C10.2018 16.8729 10.983 16.7519 11.7173 16.5101C12.4515 16.2676 13.1233 15.9199 13.7326 15.4668C13.1233 15.0137 12.4515 14.666 11.7173 14.4235C10.983 14.1816 10.2018 14.0607 9.37381 14.0607C8.54579 14.0607 7.76464 14.1816 7.03036 14.4235C6.29608 14.666 5.62429 15.0137 5.01499 15.4668C5.62429 15.9199 6.29608 16.2676 7.03036 16.5101C7.76464 16.7519 8.54579 16.8729 9.37381 16.8729ZM9.37381 8.43643C9.78001 8.43643 10.1159 8.30364 10.3815 8.03804C10.6471 7.77245 10.7799 7.43656 10.7799 7.03036C10.7799 6.62416 10.6471 6.28827 10.3815 6.02268C10.1159 5.75708 9.78001 5.62429 9.37381 5.62429C8.96762 5.62429 8.63172 5.75708 8.36613 6.02268C8.10054 6.28827 7.96774 6.62416 7.96774 7.03036C7.96774 7.43656 8.10054 7.77245 8.36613 8.03804C8.63172 8.30364 8.96762 8.43643 9.37381 8.43643Z" fill="black"/>
</svg>
