<svg width="21" height="19" viewBox="0 0 21 19" fill="none" xmlns="http://www.w3.org/2000/svg">
<path d="M8.34375 9.5C8.15313 9.5 7.97031 9.58231 7.83552 9.72882C7.70073 9.87533 7.625 10.074 7.625 10.2812C7.625 10.4885 7.70073 10.6872 7.83552 10.8337C7.97031 10.9802 8.15313 11.0625 8.34375 11.0625H12.6562C12.8469 11.0625 13.0297 10.9802 13.1645 10.8337C13.2993 10.6872 13.375 10.4885 13.375 10.2812C13.375 10.074 13.2993 9.87533 13.1645 9.72882C13.0297 9.58231 12.8469 9.5 12.6562 9.5H8.34375ZM0.4375 2.46875C0.4375 1.84715 0.664676 1.25101 1.06905 0.811469C1.47343 0.37193 2.02188 0.125 2.59375 0.125H18.4062C18.9781 0.125 19.5266 0.37193 19.931 0.811469C20.3353 1.25101 20.5625 1.84715 20.5625 2.46875V4.03125C20.5627 4.51613 20.4246 4.98916 20.1671 5.38514C19.9097 5.78112 19.5456 6.08056 19.125 6.24219V14.9688C19.125 16.0048 18.7464 16.9983 18.0724 17.7309C17.3985 18.4634 16.4844 18.875 15.5312 18.875H5.46875C4.51563 18.875 3.60154 18.4634 2.92759 17.7309C2.25363 16.9983 1.875 16.0048 1.875 14.9688V6.24219C1.45442 6.08056 1.09031 5.78112 0.832853 5.38514C0.575396 4.98916 0.437266 4.51613 0.4375 4.03125V2.46875ZM2.59375 1.6875C2.40313 1.6875 2.22031 1.76981 2.08552 1.91632C1.95073 2.06284 1.875 2.26155 1.875 2.46875V4.03125C1.875 4.23845 1.95073 4.43716 2.08552 4.58368C2.22031 4.73019 2.40313 4.8125 2.59375 4.8125H18.4062C18.5969 4.8125 18.7797 4.73019 18.9145 4.58368C19.0493 4.43716 19.125 4.23845 19.125 4.03125V2.46875C19.125 2.26155 19.0493 2.06284 18.9145 1.91632C18.7797 1.76981 18.5969 1.6875 18.4062 1.6875H2.59375ZM3.3125 6.375V14.9688C3.3125 15.5904 3.53968 16.1865 3.94405 16.626C4.34843 17.0656 4.89688 17.3125 5.46875 17.3125H15.5312C16.1031 17.3125 16.6516 17.0656 17.056 16.626C17.4603 16.1865 17.6875 15.5904 17.6875 14.9688V6.375H3.3125Z" fill="black"/>
</svg>
