<svg width="27" height="23" viewBox="0 0 27 23" fill="none" xmlns="http://www.w3.org/2000/svg">
<path d="M17.1159 11.5C17.1159 12.5398 16.735 13.537 16.0568 14.2722C15.3787 15.0075 14.4589 15.4205 13.4999 15.4205C12.5408 15.4205 11.6211 15.0075 10.9429 14.2722C10.2648 13.537 9.88379 12.5398 9.88379 11.5C9.88379 10.4603 10.2648 9.46309 10.9429 8.72786C11.6211 7.99264 12.5408 7.57959 13.4999 7.57959C14.4589 7.57959 15.3787 7.99264 16.0568 8.72786C16.735 9.46309 17.1159 10.4603 17.1159 11.5Z" stroke="#AFAFAF" stroke-width="2.5" stroke-linecap="round" stroke-linejoin="round"/>
<path d="M1.99805 11.5C3.53367 6.19826 8.10318 2.35229 13.4996 2.35229C18.8972 2.35229 23.4655 6.19826 25.0011 11.5C23.4655 16.8018 18.8972 20.6477 13.4996 20.6477C8.10318 20.6477 3.53367 16.8018 1.99805 11.5Z" stroke="#AFAFAF" stroke-width="2.5" stroke-linecap="round" stroke-linejoin="round"/>
</svg>
