<svg width="15" height="15" viewBox="0 0 15 15" fill="none" xmlns="http://www.w3.org/2000/svg">
<path opacity="0.5" d="M7.89998 3.53223H7.10144C7.0284 3.53223 6.96863 3.59199 6.96863 3.66504V8.23545C6.96863 8.27861 6.98855 8.31846 7.02342 8.34336L9.76765 10.3472C9.82742 10.3903 9.91043 10.3787 9.95359 10.3189L10.4284 9.67148C10.4732 9.61006 10.4599 9.52705 10.4002 9.48555L8.03279 7.77393V3.66504C8.03279 3.59199 7.97302 3.53223 7.89998 3.53223ZM11.549 4.78067L14.1521 5.41651C14.2351 5.43643 14.3165 5.37334 14.3165 5.28867L14.3298 2.60752C14.3298 2.49629 14.2019 2.4332 14.1156 2.50293L11.4992 4.54658C11.4794 4.56188 11.4644 4.58245 11.4558 4.60592C11.4472 4.62939 11.4454 4.65482 11.4506 4.67927C11.4558 4.70372 11.4678 4.72621 11.4852 4.74415C11.5026 4.76209 11.5247 4.77474 11.549 4.78067ZM14.3331 9.7794L13.3918 9.45566C13.359 9.44442 13.323 9.44645 13.2917 9.46135C13.2604 9.47624 13.2361 9.5028 13.2241 9.53535C13.1926 9.62002 13.1594 9.70303 13.1245 9.78604C12.829 10.485 12.4056 11.1142 11.8644 11.6537C11.3292 12.1906 10.695 12.6185 9.99676 12.9138C9.27347 13.2196 8.49599 13.3765 7.71072 13.3753C6.91717 13.3753 6.14851 13.2209 5.42469 12.9138C4.72649 12.6185 4.09221 12.1906 3.55701 11.6537C3.01746 11.1142 2.59412 10.485 2.29695 9.78604C1.99284 9.06235 1.83703 8.28499 1.83875 7.5C1.83875 6.70645 1.99314 5.93613 2.30027 5.21231C2.59578 4.51338 3.01912 3.88418 3.56033 3.34463C4.09553 2.80777 4.72981 2.37984 5.42801 2.08457C6.14851 1.77744 6.91883 1.62305 7.71238 1.62305C8.50594 1.62305 9.27459 1.77744 9.99842 2.08457C10.6966 2.37984 11.3309 2.80777 11.8661 3.34463C12.0354 3.51563 12.1948 3.69326 12.3409 3.88086L13.3337 3.10391C12.0271 1.43379 9.99343 0.35967 7.70906 0.36133C3.73133 0.36299 0.537185 3.59365 0.577029 7.57305C0.616873 11.4827 3.79607 14.6387 7.71238 14.6387C10.792 14.6387 13.415 12.6863 14.4144 9.95205C14.4393 9.88233 14.4028 9.8043 14.3331 9.7794Z" fill="black"/>
</svg>
