<svg width="15" height="17" viewBox="0 0 15 17" fill="none" xmlns="http://www.w3.org/2000/svg">
<path fill-rule="evenodd" clip-rule="evenodd" d="M10.4688 1.14478C10.5713 1.14478 10.6729 1.16592 10.7677 1.20699C10.8625 1.24806 10.9486 1.30827 11.0212 1.38416C11.0937 1.46005 11.1513 1.55015 11.1905 1.64931C11.2298 1.74847 11.25 1.85475 11.25 1.96208C11.25 2.06941 11.2298 2.17569 11.1905 2.27485C11.1513 2.37401 11.0937 2.46411 11.0212 2.54001C10.9486 2.6159 10.8625 2.6761 10.7677 2.71718C10.6729 2.75825 10.5713 2.77939 10.4688 2.77939H3.4375V13.4044C3.4375 13.6212 3.51981 13.829 3.66632 13.9823C3.81284 14.1356 4.01155 14.2217 4.21875 14.2217H10.4688C10.676 14.2217 10.8747 14.3078 11.0212 14.4611C11.1677 14.6144 11.25 14.8222 11.25 15.039C11.25 15.2558 11.1677 15.4637 11.0212 15.6169C10.8747 15.7702 10.676 15.8563 10.4688 15.8563H4.21875C3.59715 15.8563 3.00101 15.598 2.56147 15.1382C2.12193 14.6783 1.875 14.0547 1.875 13.4044V1.96208C1.875 1.74532 1.95731 1.53743 2.10382 1.38416C2.25034 1.23088 2.44905 1.14478 2.65625 1.14478H10.4688ZM11.8023 5.47078C11.6931 5.35657 11.554 5.27877 11.4026 5.24722C11.2511 5.21567 11.0941 5.23179 10.9514 5.29354C10.8087 5.35528 10.6867 5.45988 10.6008 5.59413C10.5149 5.72838 10.4689 5.88625 10.4688 6.0478V7.68242H5.78125C5.57405 7.68242 5.37534 7.76853 5.22882 7.9218C5.08231 8.07508 5 8.28296 5 8.49973C5 8.71649 5.08231 8.92438 5.22882 9.07765C5.37534 9.23093 5.57405 9.31704 5.78125 9.31704H10.4688V10.9517C10.4688 11.1133 10.5146 11.2713 10.6005 11.4056C10.6863 11.54 10.8083 11.6447 10.9511 11.7066C11.0938 11.7684 11.2508 11.7846 11.4024 11.7531C11.5539 11.7216 11.6931 11.6438 11.8023 11.5295L14.1461 9.07756C14.2926 8.9243 14.3748 8.71645 14.3748 8.49973C14.3748 8.28301 14.2926 8.07516 14.1461 7.92189L11.8023 5.47078Z" fill="#D62020"/>
</svg>
