<svg width="27" height="23" viewBox="0 0 27 23" fill="none" xmlns="http://www.w3.org/2000/svg">
<path d="M7.87567 5.26581C9.57717 4.27204 11.5215 3.75147 13.5007 3.75976C20.596 3.75976 24.0385 10.0438 24.6494 11.2878C24.7169 11.4238 24.7169 11.5764 24.6494 11.7136C24.2534 12.5186 22.6739 15.4312 19.6882 17.3873M15.7507 19.0194C15.0102 19.1677 14.2563 19.2418 13.5007 19.2405C6.40529 19.2405 2.96279 12.9564 2.35192 11.7124C2.31891 11.646 2.30176 11.573 2.30176 11.499C2.30176 11.4251 2.31891 11.3521 2.35192 11.2856C2.59829 10.7858 3.29692 9.48101 4.50067 8.09548M11.2507 9.02764C11.8937 8.4627 12.7323 8.16113 13.5944 8.18484C14.4565 8.20856 15.2766 8.55576 15.8864 9.15516C16.4963 9.75457 16.8495 10.5607 16.8736 11.408C16.8978 12.2554 16.5909 13.0797 16.0162 13.7117M3.37567 1.54822L23.6257 21.4521" stroke="#AFAFAF" stroke-width="2.21454" stroke-linecap="round" stroke-linejoin="round"/>
</svg>
