<svg width="38" height="38" viewBox="0 0 38 38" fill="none" xmlns="http://www.w3.org/2000/svg">
<path fill-rule="evenodd" clip-rule="evenodd" d="M7.62357 0.5C3.55126 0.5 0.25 3.80127 0.25 7.87358V30.3445C0.25 34.4168 3.55127 37.718 7.62358 37.718H30.0945C34.1668 37.718 37.468 34.4168 37.468 30.3445V7.87357C37.468 3.80126 34.1668 0.5 30.0945 0.5H7.62357Z" fill="url(#paint0_linear_93_101)"/>
<path d="M6.9057 34.5671C5.11412 34.5671 4.21689 32.401 5.48373 31.1341L30.4838 6.13404C31.7507 4.8672 33.9168 5.76442 33.9168 7.55601L33.9168 32.5561C33.9168 33.6667 33.0164 34.5671 31.9058 34.5671H15.37H6.9057Z" fill="white"/>
<g clip-path="url(#clip0_93_101)">
<path d="M4.41644 8.0302L5.26938 8.88457C5.35634 8.97167 5.49696 8.97167 5.58392 8.88457L7.63766 6.82742C7.72462 6.74031 7.72462 6.59946 7.63766 6.51236L6.78471 5.65799C6.43872 5.31143 5.87625 5.31143 5.52841 5.65799L4.41644 6.77182C4.0686 7.11838 4.0686 7.68178 4.41644 8.0302ZM8.37034 7.24626L17.2588 15.4359L17.651 17.6877C17.7047 17.9916 17.4401 18.2548 17.1366 18.2029L14.8886 17.8082L6.00022 9.61847C5.91326 9.53136 5.91326 9.39051 6.00022 9.30341L8.05395 7.24626C8.14276 7.15916 8.28338 7.15916 8.37034 7.24626ZM15.3623 15.019C15.464 14.917 15.464 14.7539 15.3623 14.652L12.513 11.7979C12.4112 11.696 12.2484 11.696 12.1466 11.7979C12.0449 11.8999 12.0449 12.063 12.1466 12.1649L14.9959 15.019C15.0977 15.1209 15.2605 15.1209 15.3623 15.019ZM16.0302 16.5776H15.1421V17.2503L16.3355 17.4597L16.9109 16.8834L16.7018 15.688H16.0302V16.5776Z" fill="white"/>
</g>
<g clip-path="url(#clip1_93_101)">
<path d="M31.6058 29.1635L30.7592 28.3024C30.6729 28.2146 30.5333 28.2146 30.447 28.3024L28.4085 30.3756C28.3222 30.4634 28.3222 30.6054 28.4085 30.6932L29.2551 31.5542C29.5985 31.9035 30.1568 31.9035 30.5021 31.5542L31.6058 30.4317C31.9511 30.0824 31.9511 29.5146 31.6058 29.1635ZM27.6812 29.9535L18.8587 21.6999L18.4693 19.4305C18.4161 19.1242 18.6787 18.859 18.9799 18.9113L21.2112 19.3091L30.0338 27.5628C30.1201 27.6506 30.1201 27.7925 30.0338 27.8803L27.9953 29.9535C27.9071 30.0413 27.7675 30.0413 27.6812 29.9535ZM20.7411 22.1201C20.6401 22.2228 20.6401 22.3872 20.7411 22.4899L23.5693 25.3663C23.6703 25.469 23.8319 25.469 23.9329 25.3663C24.0339 25.2636 24.0339 25.0992 23.9329 24.9965L21.1047 22.1201C21.0037 22.0174 20.8421 22.0174 20.7411 22.1201ZM20.0781 20.5493H20.9596V19.8713L19.7751 19.6603L19.2039 20.2411L19.4114 21.4459H20.0781V20.5493Z" fill="url(#paint1_linear_93_101)"/>
</g>
<defs>
<linearGradient id="paint0_linear_93_101" x1="0.142656" y1="0.499998" x2="44.8126" y2="15.4458" gradientUnits="userSpaceOnUse">
<stop stop-color="#72AAFF"/>
<stop offset="0.255208" stop-color="#B99DEF"/>
<stop offset="0.546875" stop-color="#FF8FE0"/>
<stop offset="0.796875" stop-color="#FFC67B"/>
<stop offset="1" stop-color="#FFF621"/>
</linearGradient>
<linearGradient id="paint1_linear_93_101" x1="18.4237" y1="31.8162" x2="34.3851" y2="26.2727" gradientUnits="userSpaceOnUse">
<stop stop-color="#72AAFF"/>
<stop offset="0.255208" stop-color="#B99DEF"/>
<stop offset="0.546875" stop-color="#FF8FE0"/>
<stop offset="0.796875" stop-color="#FFC67B"/>
<stop offset="1" stop-color="#FFF621"/>
</linearGradient>
<clipPath id="clip0_93_101">
<rect width="13.5065" height="12.8062" fill="white" transform="matrix(-1 0 0 1 17.6584 5.40247)"/>
</clipPath>
<clipPath id="clip1_93_101">
<rect width="13.4065" height="12.9063" fill="white" transform="matrix(-1 0 0 1 31.8652 18.9089)"/>
</clipPath>
</defs>
</svg>
