<svg width="32" height="20" viewBox="0 0 32 20" fill="none" xmlns="http://www.w3.org/2000/svg">
<rect width="32" height="20" rx="10" fill="white"/>
<rect x="0.25" y="0.25" width="31.5" height="19.5" rx="9.75" stroke="black" stroke-opacity="0.5" stroke-width="0.5"/>
<g clip-path="url(#clip0_283_165)">
<path d="M10.75 8.5C11.1478 8.5 11.5294 8.65804 11.8107 8.93934C12.092 9.22064 12.25 9.60218 12.25 10C12.25 10.3978 12.092 10.7794 11.8107 11.0607C11.5294 11.342 11.1478 11.5 10.75 11.5C10.3522 11.5 9.97064 11.342 9.68934 11.0607C9.40804 10.7794 9.25 10.3978 9.25 10C9.25 9.60218 9.40804 9.22064 9.68934 8.93934C9.97064 8.65804 10.3522 8.5 10.75 8.5ZM16 8.5C16.3978 8.5 16.7794 8.65804 17.0607 8.93934C17.342 9.22064 17.5 9.60218 17.5 10C17.5 10.3978 17.342 10.7794 17.0607 11.0607C16.7794 11.342 16.3978 11.5 16 11.5C15.6022 11.5 15.2206 11.342 14.9393 11.0607C14.658 10.7794 14.5 10.3978 14.5 10C14.5 9.60218 14.658 9.22064 14.9393 8.93934C15.2206 8.65804 15.6022 8.5 16 8.5ZM21.25 8.5C21.6478 8.5 22.0294 8.65804 22.3107 8.93934C22.592 9.22064 22.75 9.60218 22.75 10C22.75 10.3978 22.592 10.7794 22.3107 11.0607C22.0294 11.342 21.6478 11.5 21.25 11.5C20.8522 11.5 20.4706 11.342 20.1893 11.0607C19.908 10.7794 19.75 10.3978 19.75 10C19.75 9.60218 19.908 9.22064 20.1893 8.93934C20.4706 8.65804 20.8522 8.5 21.25 8.5Z" fill="black"/>
</g>
<defs>
<clipPath id="clip0_283_165">
<rect x="7" y="1" width="18" height="18" fill="white"/>
</clipPath>
</defs>
</svg>
