<svg width="23" height="23" viewBox="0 0 23 23" fill="none" xmlns="http://www.w3.org/2000/svg">
<path fill-rule="evenodd" clip-rule="evenodd" d="M16.1458 0.949331L16.2156 0.968363C17.3786 1.28026 18.2995 1.52661 19.0237 1.78882C19.7649 2.05632 20.3697 2.36187 20.8677 2.82814C21.5924 3.50747 22.0994 4.38649 22.3246 5.35401C22.48 6.01799 22.443 6.69465 22.3035 7.46965C22.1692 8.22878 21.9228 9.14969 21.6109 10.3116L21.0442 12.4252C20.7334 13.5871 20.486 14.508 20.2248 15.2323C19.9563 15.9734 19.6507 16.5782 19.1844 17.0762C18.5273 17.7779 17.6826 18.2762 16.7506 18.512C16.4775 19.138 16.0796 19.7018 15.5812 20.1688C15.0832 20.635 14.4784 20.9406 13.7373 21.2092C13.013 21.4714 12.0921 21.7177 10.9302 22.0296L10.8593 22.0486C9.69631 22.3595 8.77646 22.6058 8.01733 22.7422C7.24233 22.8807 6.56567 22.9177 5.90063 22.7634C4.93324 22.5374 4.05459 22.0297 3.37582 21.3043C2.91061 20.8074 2.60399 20.2026 2.33544 19.4615C2.07429 18.7372 1.82794 17.8163 1.51604 16.6533L0.949331 14.5408C0.638488 13.3778 0.391081 12.458 0.255748 11.6988C0.117243 10.9238 0.0802377 10.2472 0.234602 9.58212C0.460537 8.61473 0.9683 7.73608 1.69366 7.0573C2.19059 6.5921 2.79536 6.28548 3.53652 6.01693C4.26077 5.75578 5.18167 5.50943 6.34363 5.19753L6.37958 5.18696L7.17361 4.9755C7.58807 3.49635 7.95177 2.45069 8.66227 1.69261C9.34119 0.967631 10.2198 0.460244 11.1871 0.234602C11.8521 0.0802377 12.5277 0.117243 13.3038 0.255748C14.0619 0.391081 14.9828 0.638488 16.1458 0.949331ZM6.69465 6.7454C5.53903 7.05519 4.71118 7.27934 4.07469 7.50877C3.42974 7.74137 3.05228 7.95706 2.77739 8.21504C2.28115 8.67952 1.93381 9.28074 1.77931 9.94265C1.69472 10.3106 1.69578 10.7462 1.81737 11.4197C1.93896 12.1038 2.16839 12.9602 2.49086 14.1655L3.03854 16.2082C3.36101 17.4135 3.5915 18.2699 3.82728 18.9222C4.05988 19.5672 4.27557 19.9457 4.53355 20.2206C4.99803 20.7168 5.59925 21.0642 6.26117 21.2187C6.62805 21.3033 7.06471 21.3011 7.7382 21.1806C8.42227 21.059 9.27868 20.8296 10.484 20.5071C11.6893 20.1836 12.5457 19.9541 13.1991 19.7173C13.843 19.4847 14.2215 19.269 14.4964 19.0121C14.6423 18.8747 14.7745 18.7266 14.894 18.5691C14.6978 18.5411 14.5025 18.5076 14.3082 18.4687C13.5977 18.327 12.7434 18.0986 11.6914 17.8163L11.6301 17.8004C10.4681 17.4885 9.54723 17.2422 8.82298 16.98C8.08182 16.7125 7.47705 16.4069 6.97907 15.9407C6.25391 15.2615 5.74651 14.3824 5.52106 13.4148C5.3667 12.7508 5.4037 12.0742 5.54221 11.2981C5.67754 10.54 5.92495 9.61912 6.23579 8.45716L6.69465 6.7454ZM13.0247 1.81737C12.3501 1.69578 11.9145 1.69366 11.5476 1.77931C10.8857 1.93381 10.2845 2.28115 9.82001 2.77739C9.35903 3.26903 9.07462 4.03028 8.58192 5.83613C8.50157 6.13006 8.41698 6.44619 8.325 6.78981L7.77732 8.8325C7.45485 10.0378 7.22542 10.8942 7.10383 11.5783C6.98224 12.2518 6.98012 12.6884 7.06576 13.0553C7.22027 13.7172 7.56761 14.3185 8.06385 14.7829C8.33874 15.0409 8.71725 15.2555 9.36115 15.4892C10.0146 15.725 10.871 15.9544 12.0763 16.2779C13.16 16.5687 13.9635 16.7833 14.6169 16.9123C15.2672 17.0424 15.7091 17.0741 16.0707 17.0297C16.15 17.0191 16.2251 17.0064 16.2991 16.9895C16.961 16.835 17.5622 16.4877 18.0267 15.9914C18.2847 15.7165 18.5004 15.338 18.733 14.6941C18.9688 14.0407 19.1982 13.1843 19.5217 11.979L20.0694 9.93631C20.3919 8.731 20.6213 7.87459 20.7429 7.19052C20.8634 6.51703 20.8666 6.08037 20.781 5.71349C20.6264 5.05158 20.2791 4.45036 19.7829 3.98587C19.508 3.72789 19.1295 3.51326 18.4856 3.2796C17.8311 3.04383 16.9758 2.81439 15.7704 2.49086C14.5651 2.16839 13.7087 1.93896 13.0247 1.81737ZM10.4977 9.18035C10.5247 9.07974 10.5713 8.98544 10.6347 8.90283C10.6981 8.82021 10.7772 8.75091 10.8675 8.69887C10.9577 8.64683 11.0573 8.61308 11.1606 8.59955C11.2639 8.58601 11.3688 8.59295 11.4694 8.61998L16.5761 9.98812C16.7736 10.0475 16.9402 10.1815 17.0406 10.3617C17.1409 10.5419 17.1671 10.7541 17.1136 10.9532C17.0601 11.1524 16.9311 11.3229 16.7539 11.4285C16.5768 11.5342 16.3655 11.5667 16.1648 11.5191L11.0581 10.1509C10.8552 10.0964 10.6821 9.96359 10.5771 9.7816C10.472 9.59961 10.4435 9.38336 10.4977 9.18035ZM9.67622 12.2444C9.7032 12.1437 9.74978 12.0492 9.81329 11.9666C9.8768 11.8839 9.956 11.8145 10.0463 11.7624C10.1367 11.7104 10.2364 11.6767 10.3398 11.6632C10.4432 11.6498 10.5483 11.6568 10.6489 11.684L13.7119 12.5045C13.9151 12.5589 14.0883 12.6917 14.1935 12.8739C14.2987 13.056 14.3272 13.2724 14.2728 13.4756C14.2184 13.6788 14.0855 13.852 13.9034 13.9572C13.7213 14.0624 13.5048 14.0909 13.3017 14.0365L10.2376 13.215C10.0347 13.1605 9.86168 13.0276 9.75661 12.8456C9.65155 12.6636 9.62301 12.4474 9.67727 12.2444H9.67622Z" fill="black"/>
</svg>
