<svg width="19" height="20" viewBox="0 0 19 20" fill="none" xmlns="http://www.w3.org/2000/svg">
<path d="M11.0268 14.6044L7.17769 12.5052C6.67517 13.0425 6.02268 13.4161 5.30501 13.5776C4.58734 13.7392 3.83768 13.6811 3.15345 13.4109C2.46923 13.1408 1.88207 12.6711 1.46829 12.0629C1.05452 11.4547 0.833252 10.7361 0.833252 10.0004C0.833252 9.26482 1.05452 8.54621 1.46829 7.93799C1.88207 7.32978 2.46923 6.86008 3.15345 6.58995C3.83768 6.31982 4.58734 6.26174 5.30501 6.42326C6.02268 6.58478 6.67517 6.95843 7.17769 7.49565L11.0277 5.39649C10.8094 4.53112 10.9143 3.61586 11.3226 2.82227C11.7309 2.02869 12.4146 1.41126 13.2456 1.08574C14.0766 0.760215 14.9978 0.748941 15.8365 1.05403C16.6752 1.35912 17.3738 1.95962 17.8014 2.74298C18.229 3.52633 18.3562 4.43875 18.1592 5.3092C17.9622 6.17965 17.4545 6.94836 16.7313 7.47124C16.008 7.99413 15.1189 8.23527 14.2306 8.14948C13.3422 8.06369 12.5157 7.65686 11.9059 7.00524L8.05586 9.1044C8.20363 9.69231 8.20363 10.3077 8.05586 10.8956L11.9059 12.9947C12.516 12.3434 13.3427 11.937 14.2311 11.8517C15.1194 11.7663 16.0084 12.0079 16.7314 12.5311C17.4544 13.0543 17.9617 13.8232 18.1584 14.6937C18.355 15.5643 18.2273 16.4766 17.7994 17.2597C17.3714 18.0429 16.6726 18.6431 15.8338 18.9478C14.995 19.2525 14.0738 19.2409 13.243 18.915C12.4121 18.5892 11.7287 17.9715 11.3207 17.1778C10.9127 16.384 10.8082 15.4688 11.0268 14.6035V14.6044ZM4.50011 11.8333C4.98634 11.8333 5.45265 11.6402 5.79647 11.2963C6.14029 10.9525 6.33344 10.4862 6.33344 9.99999C6.33344 9.51375 6.14029 9.04744 5.79647 8.70362C5.45265 8.35981 4.98634 8.16665 4.50011 8.16665C4.01388 8.16665 3.54756 8.35981 3.20374 8.70362C2.85993 9.04744 2.66677 9.51375 2.66677 9.99999C2.66677 10.4862 2.85993 10.9525 3.20374 11.2963C3.54756 11.6402 4.01388 11.8333 4.50011 11.8333ZM14.5834 6.33332C15.0697 6.33332 15.536 6.14016 15.8798 5.79635C16.2236 5.45253 16.4168 4.98622 16.4168 4.49999C16.4168 4.01376 16.2236 3.54744 15.8798 3.20362C15.536 2.85981 15.0697 2.66665 14.5834 2.66665C14.0972 2.66665 13.6309 2.85981 13.2871 3.20362C12.9433 3.54744 12.7501 4.01376 12.7501 4.49999C12.7501 4.98622 12.9433 5.45253 13.2871 5.79635C13.6309 6.14016 14.0972 6.33332 14.5834 6.33332ZM14.5834 17.3333C15.0697 17.3333 15.536 17.1402 15.8798 16.7963C16.2236 16.4525 16.4168 15.9862 16.4168 15.5C16.4168 15.0138 16.2236 14.5474 15.8798 14.2036C15.536 13.8598 15.0697 13.6667 14.5834 13.6667C14.0972 13.6667 13.6309 13.8598 13.2871 14.2036C12.9433 14.5474 12.7501 15.0138 12.7501 15.5C12.7501 15.9862 12.9433 16.4525 13.2871 16.7963C13.6309 17.1402 14.0972 17.3333 14.5834 17.3333Z" fill="black"/>
</svg>
