<svg width="22" height="26" viewBox="0 0 22 26" fill="none" xmlns="http://www.w3.org/2000/svg">
<path d="M0.800049 3.80002C0.800049 3.0309 1.10558 2.29327 1.64944 1.74941C2.19329 1.20556 2.93092 0.900024 3.70005 0.900024H15.3C16.0692 0.900024 16.8068 1.20556 17.3507 1.74941C17.8945 2.29327 18.2001 3.0309 18.2001 3.80002V18.1304L16.75 19.5949V3.80002C16.75 3.41546 16.5973 3.04665 16.3254 2.77472C16.0534 2.50279 15.6846 2.35002 15.3 2.35002H3.70005C3.31549 2.35002 2.94667 2.50279 2.67474 2.77472C2.40282 3.04665 2.25005 3.41546 2.25005 3.80002V21.2C2.25005 21.5846 2.40282 21.9534 2.67474 22.2253C2.94667 22.4973 3.31549 22.65 3.70005 22.65H9.6233C9.72625 22.94 9.89155 23.2141 10.1221 23.4475L10.7615 24.1H3.70005C2.93092 24.1 2.19329 23.7945 1.64944 23.2506C1.10558 22.7068 0.800049 21.9692 0.800049 21.2V3.80002ZM6.60005 5.97502C6.60005 6.35959 6.44728 6.7284 6.17535 7.00033C5.90343 7.27226 5.53461 7.42502 5.15005 7.42502C4.76549 7.42502 4.39667 7.27226 4.12474 7.00033C3.85282 6.7284 3.70005 6.35959 3.70005 5.97502C3.70005 5.59046 3.85282 5.22165 4.12474 4.94972C4.39667 4.67779 4.76549 4.52502 5.15005 4.52502C5.53461 4.52502 5.90343 4.67779 6.17535 4.94972C6.44728 5.22165 6.60005 5.59046 6.60005 5.97502ZM8.77505 5.25002C8.58277 5.25002 8.39836 5.32641 8.2624 5.46237C8.12643 5.59834 8.05005 5.78274 8.05005 5.97502C8.05005 6.16731 8.12643 6.35171 8.2624 6.48768C8.39836 6.62364 8.58277 6.70002 8.77505 6.70002H14.575C14.7673 6.70002 14.9517 6.62364 15.0877 6.48768C15.2237 6.35171 15.3 6.16731 15.3 5.97502C15.3 5.78274 15.2237 5.59834 15.0877 5.46237C14.9517 5.32641 14.7673 5.25002 14.575 5.25002H8.77505ZM8.77505 11.05C8.58277 11.05 8.39836 11.1264 8.2624 11.2624C8.12643 11.3983 8.05005 11.5827 8.05005 11.775C8.05005 11.9673 8.12643 12.1517 8.2624 12.2877C8.39836 12.4236 8.58277 12.5 8.77505 12.5H14.575C14.7673 12.5 14.9517 12.4236 15.0877 12.2877C15.2237 12.1517 15.3 11.9673 15.3 11.775C15.3 11.5827 15.2237 11.3983 15.0877 11.2624C14.9517 11.1264 14.7673 11.05 14.575 11.05H8.77505ZM8.05005 17.575C8.05005 17.3827 8.12643 17.1983 8.2624 17.0624C8.39836 16.9264 8.58277 16.85 8.77505 16.85H14.575C14.7673 16.85 14.9517 16.9264 15.0877 17.0624C15.2237 17.1983 15.3 17.3827 15.3 17.575C15.3 17.7673 15.2237 17.9517 15.0877 18.0877C14.9517 18.2236 14.7673 18.3 14.575 18.3H8.77505C8.58277 18.3 8.39836 18.2236 8.2624 18.0877C8.12643 17.9517 8.05005 17.7673 8.05005 17.575ZM5.15005 13.225C5.53461 13.225 5.90343 13.0723 6.17535 12.8003C6.44728 12.5284 6.60005 12.1596 6.60005 11.775C6.60005 11.3905 6.44728 11.0216 6.17535 10.7497C5.90343 10.4778 5.53461 10.325 5.15005 10.325C4.76549 10.325 4.39667 10.4778 4.12474 10.7497C3.85282 11.0216 3.70005 11.3905 3.70005 11.775C3.70005 12.1596 3.85282 12.5284 4.12474 12.8003C4.39667 13.0723 4.76549 13.225 5.15005 13.225ZM5.15005 19.025C5.53461 19.025 5.90343 18.8723 6.17535 18.6003C6.44728 18.3284 6.60005 17.9596 6.60005 17.575C6.60005 17.1905 6.44728 16.8216 6.17535 16.5497C5.90343 16.2778 5.53461 16.125 5.15005 16.125C4.76549 16.125 4.39667 16.2778 4.12474 16.5497C3.85282 16.8216 3.70005 17.1905 3.70005 17.575C3.70005 17.9596 3.85282 18.3284 4.12474 18.6003C4.39667 18.8723 4.76549 19.025 5.15005 19.025ZM20.8898 19.5354C21.0214 19.3981 21.0938 19.2147 21.0914 19.0245C21.089 18.8344 21.012 18.6528 20.8769 18.5189C20.7419 18.385 20.5596 18.3095 20.3695 18.3087C20.1793 18.3079 19.9965 18.3819 19.8603 18.5146L14.5779 23.8506L12.1927 21.4175C12.1264 21.348 12.047 21.2923 11.959 21.2537C11.871 21.2151 11.7762 21.1944 11.6802 21.1927C11.5841 21.1911 11.4887 21.2086 11.3994 21.2441C11.3102 21.2797 11.2289 21.3327 11.1602 21.3999C11.0916 21.4672 11.0371 21.5474 10.9998 21.6359C10.9624 21.7245 10.9431 21.8195 10.9428 21.9156C10.9425 22.0117 10.9614 22.1069 10.9982 22.1956C11.0351 22.2844 11.0892 22.3649 11.1574 22.4325L13.9544 25.2861C14.0352 25.3685 14.1316 25.434 14.2379 25.4788C14.3442 25.5236 14.4583 25.5469 14.5737 25.5471C14.6891 25.5474 14.8034 25.5247 14.9099 25.4804C15.0164 25.4361 15.1131 25.371 15.1942 25.289L20.8898 19.5354Z" fill="black"/>
</svg>
