<svg width="171" height="32" viewBox="0 0 171 32" fill="none" xmlns="http://www.w3.org/2000/svg">
<g clip-path="url(#clip0_67_477)">
<mask id="path-1-outside-1_67_477" maskUnits="userSpaceOnUse" x="0.25" y="-0.738403" width="169" height="19" fill="black">
<rect fill="white" x="0.25" y="-0.738403" width="169" height="19"/>
<path d="M6.99741 2.03241H0.748928V0.630664H21.5851V2.03241H15.3129V17.2616H6.99741V2.03241ZM25.5502 0.630664H32.4877L39.8528 17.2616H30.8721L28.3774 11.7496H23.1506L21.0123 17.2616H19.2779L25.5502 0.630664ZM27.7122 10.3004L25.5502 5.47739L23.6733 10.3004H27.7122ZM53.9781 6.59404C55.863 7.10089 57.2726 7.77405 58.2071 8.61351C59.1416 9.43714 59.6089 10.5142 59.6089 11.8447C59.6089 12.9059 59.2763 13.8562 58.611 14.6957C57.9458 15.5351 56.9638 16.1925 55.665 16.6676C54.382 17.1428 52.8219 17.3804 50.9846 17.3804C48.8146 17.3804 46.8981 17.1032 45.235 16.5488C43.5877 15.9786 42.2969 15.2896 41.3624 14.4819L42.1464 13.4127C42.97 14.0621 44.0075 14.6165 45.2588 15.0758C46.51 15.5351 47.8564 15.7648 49.2977 15.7648C50.2322 15.7648 50.937 15.6302 51.4122 15.3609C51.9032 15.0917 52.1487 14.7115 52.1487 14.2205C52.1487 13.3652 51.3013 12.7 49.6066 12.2248L46.518 11.322C44.839 10.8151 43.5402 10.1103 42.6216 9.20747C41.7187 8.30465 41.2673 7.23552 41.2673 6.00008C41.2673 4.97055 41.592 4.03605 42.2414 3.19658C42.8908 2.35711 43.8332 1.6998 45.0687 1.22463C46.32 0.733617 47.8168 0.488113 49.559 0.488113C51.2221 0.488113 52.7506 0.678181 54.1444 1.05832C55.5541 1.43845 56.7024 1.89778 57.5894 2.43631L56.8054 3.5292C56.0609 3.10155 55.166 2.73725 54.1207 2.43631C53.0911 2.13537 52.0062 1.9849 50.8658 1.9849C49.8679 1.9849 49.0997 2.14329 48.5612 2.46007C48.0385 2.76101 47.7772 3.18074 47.7772 3.71927C47.7772 4.13108 47.9751 4.49538 48.3711 4.81215C48.7671 5.1131 49.5194 5.41404 50.6282 5.71498L53.9781 6.59404ZM62.4701 0.630664H70.8093V17.2616H62.4701V0.630664ZM70.8093 8.92237L74.7057 0.630664H82.9974L78.8397 8.92237L84.1141 17.2616H75.7273L70.8093 8.92237ZM88.0869 6.19015V17.2616H86.6852V0.630664H93.6227L97.0914 7.56814L99.8474 0.630664H107.45V17.2616H99.8474V4.7884L95.0007 17.2616H92.9337L88.0869 6.19015ZM116.169 0.630664H123.107L130.472 17.2616H121.491L118.997 11.7496H113.77L111.631 17.2616H109.897L116.169 0.630664ZM118.331 10.3004L116.169 5.47739L114.292 10.3004H118.331ZM133.912 2.03241H127.664V0.630664H148.5V2.03241H142.228V17.2616H133.912V2.03241ZM151.326 0.630664H168.598V2.03241H159.689V8.18586H164.06V9.61137H159.689V15.8361H168.598V17.2616H151.326V0.630664Z"/>
</mask>
<path d="M6.99741 2.03241H7.49238V1.53745H6.99741V2.03241ZM0.748928 2.03241H0.25396V2.52738H0.748928V2.03241ZM0.748928 0.630664V0.135695H0.25396V0.630664H0.748928ZM21.5851 0.630664H22.0801V0.135695H21.5851V0.630664ZM21.5851 2.03241V2.52738H22.0801V2.03241H21.5851ZM15.3129 2.03241V1.53745H14.8179V2.03241H15.3129ZM15.3129 17.2616V17.7566H15.8078V17.2616H15.3129ZM6.99741 17.2616H6.50244V17.7566H6.99741V17.2616ZM6.99741 1.53745H0.748928V2.52738H6.99741V1.53745ZM1.2439 2.03241V0.630664H0.25396V2.03241H1.2439ZM0.748928 1.12563H21.5851V0.135695H0.748928V1.12563ZM21.0901 0.630664V2.03241H22.0801V0.630664H21.0901ZM21.5851 1.53745H15.3129V2.52738H21.5851V1.53745ZM14.8179 2.03241V17.2616H15.8078V2.03241H14.8179ZM15.3129 16.7666H6.99741V17.7566H15.3129V16.7666ZM7.49238 17.2616V2.03241H6.50244V17.2616H7.49238ZM25.5502 0.630664V0.135695H25.2078L25.087 0.455998L25.5502 0.630664ZM32.4877 0.630664L32.9402 0.430238L32.8098 0.135695H32.4877V0.630664ZM39.8528 17.2616V17.7566H40.6133L40.3054 17.0612L39.8528 17.2616ZM30.8721 17.2616L30.4211 17.4657L30.5528 17.7566H30.8721V17.2616ZM28.3774 11.7496L28.8284 11.5455L28.6967 11.2547H28.3774V11.7496ZM23.1506 11.7496V11.2547H22.8117L22.6891 11.5706L23.1506 11.7496ZM21.0123 17.2616V17.7566H21.3512L21.4738 17.4406L21.0123 17.2616ZM19.2779 17.2616L18.8148 17.0869L18.5623 17.7566H19.2779V17.2616ZM27.7122 10.3004V10.7953H28.4765L28.1639 10.0979L27.7122 10.3004ZM25.5502 5.47739L26.0018 5.27492L25.5179 4.19544L25.0889 5.29788L25.5502 5.47739ZM23.6733 10.3004L23.212 10.1209L22.9495 10.7953H23.6733V10.3004ZM25.5502 1.12563H32.4877V0.135695H25.5502V1.12563ZM32.0351 0.831089L39.4002 17.462L40.3054 17.0612L32.9402 0.430238L32.0351 0.831089ZM39.8528 16.7666H30.8721V17.7566H39.8528V16.7666ZM31.323 17.0575L28.8284 11.5455L27.9265 11.9537L30.4211 17.4657L31.323 17.0575ZM28.3774 11.2547H23.1506V12.2446H28.3774V11.2547ZM22.6891 11.5706L20.5508 17.0826L21.4738 17.4406L23.612 11.9286L22.6891 11.5706ZM21.0123 16.7666H19.2779V17.7566H21.0123V16.7666ZM19.7411 17.4363L26.0133 0.805328L25.087 0.455998L18.8148 17.0869L19.7411 17.4363ZM28.1639 10.0979L26.0018 5.27492L25.0985 5.67986L27.2605 10.5028L28.1639 10.0979ZM25.0889 5.29788L23.212 10.1209L24.1345 10.4799L26.0114 5.6569L25.0889 5.29788ZM23.6733 10.7953H27.7122V9.8054H23.6733V10.7953ZM53.9781 6.59404L54.1067 6.11604L54.1038 6.11528L53.9781 6.59404ZM58.2071 8.61351L57.8763 8.98174L57.8799 8.98484L58.2071 8.61351ZM58.611 14.6957L58.999 15.0031L58.611 14.6957ZM55.665 16.6676L55.4949 16.2028L55.4931 16.2035L55.665 16.6676ZM45.235 16.5488L45.0731 17.0166L45.0785 17.0184L45.235 16.5488ZM41.3624 14.4819L40.9632 14.1891L40.6931 14.5576L41.0387 14.8563L41.3624 14.4819ZM42.1464 13.4127L42.4529 13.024L42.0504 12.7067L41.7473 13.12L42.1464 13.4127ZM45.2588 15.0758L45.4293 14.6112L45.2588 15.0758ZM51.4122 15.3609L51.1742 14.9269L51.1682 14.9303L51.4122 15.3609ZM49.6066 12.2248L49.4677 12.6999L49.4729 12.7014L49.6066 12.2248ZM46.518 11.322L46.3749 11.7958L46.3791 11.7971L46.518 11.322ZM42.6216 9.20747L42.2716 9.55748L42.2746 9.5605L42.6216 9.20747ZM42.2414 3.19658L42.6329 3.49944L42.2414 3.19658ZM45.0687 1.22463L45.2464 1.68661L45.2495 1.68539L45.0687 1.22463ZM54.1444 1.05832L54.0142 1.53585L54.0156 1.53621L54.1444 1.05832ZM57.5894 2.43631L57.9916 2.72483L58.3031 2.29058L57.8463 2.01322L57.5894 2.43631ZM56.8054 3.5292L56.5588 3.95839L56.9468 4.18125L57.2076 3.81772L56.8054 3.5292ZM54.1207 2.43631L53.9818 2.9114L53.9837 2.91196L54.1207 2.43631ZM48.5612 2.46007L48.8082 2.88904L48.8121 2.8867L48.5612 2.46007ZM48.3711 4.81215L48.0618 5.19878L48.0716 5.20623L48.3711 4.81215ZM50.6282 5.71498L50.4985 6.19268L50.5025 6.19374L50.6282 5.71498ZM53.8496 7.07203C55.6969 7.56879 57.023 8.21516 57.8764 8.98173L58.5379 8.24529C57.5223 7.33293 56.029 6.63299 54.1067 6.11605L53.8496 7.07203ZM57.8799 8.98484C58.6998 9.7075 59.1139 10.6454 59.1139 11.8447H60.1038C60.1038 10.383 59.5835 9.16677 58.5344 8.24218L57.8799 8.98484ZM59.1139 11.8447C59.1139 12.7931 58.8197 13.6354 58.2231 14.3883L58.999 15.0031C59.7328 14.077 60.1038 13.0186 60.1038 11.8447H59.1139ZM58.2231 14.3883C57.6289 15.1381 56.7325 15.75 55.4949 16.2028L55.835 17.1325C57.195 16.6349 58.2627 15.9322 58.999 15.0031L58.2231 14.3883ZM55.4931 16.2035C54.2804 16.6526 52.7821 16.8854 50.9846 16.8854V17.8754C52.8617 17.8754 54.4836 17.633 55.8369 17.1318L55.4931 16.2035ZM50.9846 16.8854C48.8557 16.8854 46.9938 16.6134 45.3915 16.0793L45.0785 17.0184C46.8024 17.5931 48.7735 17.8754 50.9846 17.8754V16.8854ZM45.3969 16.0811C43.7864 15.5236 42.5578 14.8609 41.6861 14.1074L41.0387 14.8563C42.0359 15.7183 43.389 16.4336 45.0731 17.0166L45.3969 16.0811ZM41.7615 14.7746L42.5455 13.7054L41.7473 13.12L40.9632 14.1891L41.7615 14.7746ZM41.8399 13.8014C42.7139 14.4905 43.8005 15.0678 45.0882 15.5405L45.4293 14.6112C44.2144 14.1652 43.2261 13.6337 42.4529 13.024L41.8399 13.8014ZM45.0882 15.5405C46.3984 16.0214 47.8029 16.2598 49.2977 16.2598V15.2698C47.9098 15.2698 46.6217 15.0489 45.4293 14.6112L45.0882 15.5405ZM49.2977 16.2598C50.2645 16.2598 51.071 16.1232 51.6562 15.7916L51.1682 14.9303C50.803 15.1372 50.1999 15.2698 49.2977 15.2698V16.2598ZM51.6502 15.7949C52.2727 15.4535 52.6437 14.9211 52.6437 14.2205H51.6537C51.6537 14.502 51.5337 14.7298 51.1742 14.9269L51.6502 15.7949ZM52.6437 14.2205C52.6437 13.6023 52.328 13.0905 51.8188 12.6908C51.3218 12.3006 50.6154 11.9936 49.7402 11.7482L49.4729 12.7014C50.2925 12.9312 50.8571 13.1944 51.2075 13.4694C51.5457 13.7349 51.6537 13.9834 51.6537 14.2205H52.6437ZM49.7454 11.7497L46.6568 10.8469L46.3791 11.7971L49.4677 12.6999L49.7454 11.7497ZM46.661 10.8481C45.0324 10.3565 43.8131 9.68448 42.9685 8.85445L42.2746 9.5605C43.2674 10.5361 44.6457 11.2738 46.3749 11.7958L46.661 10.8481ZM42.9716 8.85748C42.1581 8.04401 41.7623 7.09942 41.7623 6.00008H40.7724C40.7724 7.37162 41.2794 8.56529 42.2716 9.55747L42.9716 8.85748ZM41.7623 6.00008C41.7623 5.08377 42.0484 4.25508 42.6329 3.49944L41.8499 2.89372C41.1357 3.81701 40.7724 4.85732 40.7724 6.00008H41.7623ZM42.6329 3.49944C43.2148 2.7473 44.0747 2.13726 45.2464 1.6866L44.891 0.76265C43.5918 1.26233 42.5669 1.96692 41.8499 2.89372L42.6329 3.49944ZM45.2495 1.68539C46.4289 1.22258 47.8612 0.983081 49.559 0.983081V-0.00685501C47.7723 -0.00685501 46.211 0.244652 44.8879 0.763863L45.2495 1.68539ZM49.559 0.983081C51.1846 0.983081 52.6686 1.16887 54.0142 1.53584L54.2747 0.580789C52.8326 0.187488 51.2596 -0.00685501 49.559 -0.00685501V0.983081ZM54.0156 1.53621C55.397 1.90872 56.4979 2.35269 57.3325 2.8594L57.8463 2.01322C56.9069 1.44287 55.7112 0.968179 54.2733 0.580419L54.0156 1.53621ZM57.1872 2.14779L56.4032 3.24068L57.2076 3.81772L57.9916 2.72483L57.1872 2.14779ZM57.0519 3.10001C56.2652 2.64807 55.3316 2.26984 54.2576 1.96066L53.9837 2.91196C55.0005 3.20466 55.8567 3.55503 56.5588 3.95839L57.0519 3.10001ZM54.2595 1.96122C53.1821 1.64629 52.0502 1.48993 50.8658 1.48993V2.47987C51.9621 2.47987 53.0001 2.62445 53.9818 2.9114L54.2595 1.96122ZM50.8658 1.48993C49.8273 1.48993 48.9574 1.65273 48.3102 2.03344L48.8121 2.8867C49.242 2.63384 49.9085 2.47987 50.8658 2.47987V1.48993ZM48.3142 2.03112C47.6603 2.40761 47.2822 2.97947 47.2822 3.71926H48.2721C48.2721 3.38201 48.4167 3.11441 48.8082 2.88902L48.3142 2.03112ZM47.2822 3.71926C47.2822 4.316 47.5785 4.8119 48.0619 5.19866L48.6803 4.42565C48.3718 4.17885 48.2721 3.94616 48.2721 3.71926H47.2822ZM48.0716 5.20623C48.5513 5.5708 49.3881 5.89125 50.4985 6.19266L50.7578 5.23729C49.6508 4.93682 48.9829 4.65539 48.6706 4.41808L48.0716 5.20623ZM50.5025 6.19374L53.8525 7.0728L54.1038 6.11528L50.7538 5.23622L50.5025 6.19374ZM62.4701 0.630664V0.135695H61.9751V0.630664H62.4701ZM70.8093 0.630664H71.3043V0.135695H70.8093V0.630664ZM70.8093 17.2616V17.7566H71.3043V17.2616H70.8093ZM62.4701 17.2616H61.9751V17.7566H62.4701V17.2616ZM70.8093 8.92237L70.3614 8.71186L70.2501 8.94855L70.383 9.17381L70.8093 8.92237ZM74.7057 0.630664V0.135695H74.3914L74.2577 0.420155L74.7057 0.630664ZM82.9974 0.630664L83.4399 0.852527L83.7993 0.135695H82.9974V0.630664ZM78.8397 8.92237L78.3972 8.70051L78.2719 8.95055L78.4214 9.18695L78.8397 8.92237ZM84.1141 17.2616V17.7566H85.0128L84.5324 16.997L84.1141 17.2616ZM75.7273 17.2616L75.301 17.513L75.4446 17.7566H75.7273V17.2616ZM62.4701 1.12563H70.8093V0.135695H62.4701V1.12563ZM70.3144 0.630664V17.2616H71.3043V0.630664H70.3144ZM70.8093 16.7666H62.4701V17.7566H70.8093V16.7666ZM62.9651 17.2616V0.630664H61.9751V17.2616H62.9651ZM71.2573 9.13288L75.1537 0.841172L74.2577 0.420155L70.3614 8.71186L71.2573 9.13288ZM74.7057 1.12563H82.9974V0.135695H74.7057V1.12563ZM82.555 0.4088L78.3972 8.70051L79.2822 9.14424L83.4399 0.852527L82.555 0.4088ZM78.4214 9.18695L83.6958 17.5262L84.5324 16.997L79.258 8.65779L78.4214 9.18695ZM84.1141 16.7666H75.7273V17.7566H84.1141V16.7666ZM76.1537 17.0102L71.2357 8.67093L70.383 9.17381L75.301 17.513L76.1537 17.0102ZM88.0869 6.19015L88.5404 5.99165L87.592 6.19015H88.0869ZM88.0869 17.2616V17.7566H88.5819V17.2616H88.0869ZM86.6852 17.2616H86.1902V17.7566H86.6852V17.2616ZM86.6852 0.630664V0.135695H86.1902V0.630664H86.6852ZM93.6227 0.630664L94.0654 0.409307L93.9286 0.135695H93.6227V0.630664ZM97.0914 7.56814L96.6487 7.7895L97.1432 8.77847L97.5514 7.75088L97.0914 7.56814ZM99.8474 0.630664V0.135695H99.5114L99.3874 0.447924L99.8474 0.630664ZM107.45 0.630664H107.945V0.135695H107.45V0.630664ZM107.45 17.2616V17.7566H107.945V17.2616H107.45ZM99.8474 17.2616H99.3524V17.7566H99.8474V17.2616ZM99.8474 4.7884H100.342L99.386 4.60912L99.8474 4.7884ZM95.0007 17.2616V17.7566H95.3393L95.462 17.4409L95.0007 17.2616ZM92.9337 17.2616L92.4802 17.4601L92.61 17.7566H92.9337V17.2616ZM87.592 6.19015V17.2616H88.5819V6.19015H87.592ZM88.0869 16.7666H86.6852V17.7566H88.0869V16.7666ZM87.1802 17.2616V0.630664H86.1902V17.2616H87.1802ZM86.6852 1.12563H93.6227V0.135695H86.6852V1.12563ZM93.1799 0.85202L96.6487 7.7895L97.5341 7.34678L94.0654 0.409307L93.1799 0.85202ZM97.5514 7.75088L100.307 0.813403L99.3874 0.447924L96.6314 7.3854L97.5514 7.75088ZM99.8474 1.12563H107.45V0.135695H99.8474V1.12563ZM106.955 0.630664V17.2616H107.945V0.630664H106.955ZM107.45 16.7666H99.8474V17.7566H107.45V16.7666ZM100.342 17.2616V4.7884H99.3524V17.2616H100.342ZM99.386 4.60912L94.5393 17.0823L95.462 17.4409L100.309 4.96767L99.386 4.60912ZM95.0007 16.7666H92.9337V17.7566H95.0007V16.7666ZM93.3871 17.0631L88.5404 5.99165L87.6335 6.38864L92.4802 17.4601L93.3871 17.0631ZM116.169 0.630664V0.135695H115.827L115.706 0.455998L116.169 0.630664ZM123.107 0.630664L123.559 0.430238L123.429 0.135695H123.107V0.630664ZM130.472 17.2616V17.7566H131.232L130.924 17.0612L130.472 17.2616ZM121.491 17.2616L121.04 17.4657L121.172 17.7566H121.491V17.2616ZM118.997 11.7496L119.447 11.5455L119.316 11.2547H118.997V11.7496ZM113.77 11.7496V11.2547H113.431L113.308 11.5706L113.77 11.7496ZM111.631 17.2616V17.7566H111.97L112.093 17.4406L111.631 17.2616ZM109.897 17.2616L109.434 17.0869L109.181 17.7566H109.897V17.2616ZM118.331 10.3004V10.7953H119.096L118.783 10.0979L118.331 10.3004ZM116.169 5.47739L116.621 5.27492L116.137 4.19544L115.708 5.29788L116.169 5.47739ZM114.292 10.3004L113.831 10.1209L113.569 10.7953H114.292V10.3004ZM116.169 1.12563H123.107V0.135695H116.169V1.12563ZM122.654 0.831089L130.019 17.462L130.924 17.0612L123.559 0.430238L122.654 0.831089ZM130.472 16.7666H121.491V17.7566H130.472V16.7666ZM121.942 17.0575L119.447 11.5455L118.546 11.9537L121.04 17.4657L121.942 17.0575ZM118.997 11.2547H113.77V12.2446H118.997V11.2547ZM113.308 11.5706L111.17 17.0826L112.093 17.4406L114.231 11.9286L113.308 11.5706ZM111.631 16.7666H109.897V17.7566H111.631V16.7666ZM110.36 17.4363L116.632 0.805328L115.706 0.455998L109.434 17.0869L110.36 17.4363ZM118.783 10.0979L116.621 5.27492L115.718 5.67986L117.88 10.5028L118.783 10.0979ZM115.708 5.29788L113.831 10.1209L114.754 10.4799L116.631 5.6569L115.708 5.29788ZM114.292 10.7953H118.331V9.8054H114.292V10.7953ZM133.912 2.03241H134.407V1.53745H133.912V2.03241ZM127.664 2.03241H127.169V2.52738H127.664V2.03241ZM127.664 0.630664V0.135695H127.169V0.630664H127.664ZM148.5 0.630664H148.995V0.135695H148.5V0.630664ZM148.5 2.03241V2.52738H148.995V2.03241H148.5ZM142.228 2.03241V1.53745H141.733V2.03241H142.228ZM142.228 17.2616V17.7566H142.723V17.2616H142.228ZM133.912 17.2616H133.417V17.7566H133.912V17.2616ZM133.912 1.53745H127.664V2.52738H133.912V1.53745ZM128.159 2.03241V0.630664H127.169V2.03241H128.159ZM127.664 1.12563H148.5V0.135695H127.664V1.12563ZM148.005 0.630664V2.03241H148.995V0.630664H148.005ZM148.5 1.53745H142.228V2.52738H148.5V1.53745ZM141.733 2.03241V17.2616H142.723V2.03241H141.733ZM142.228 16.7666H133.912V17.7566H142.228V16.7666ZM134.407 17.2616V2.03241H133.417V17.2616H134.407ZM151.326 0.630664V0.135695H150.831V0.630664H151.326ZM168.598 0.630664H169.093V0.135695H168.598V0.630664ZM168.598 2.03241V2.52738H169.093V2.03241H168.598ZM159.689 2.03241V1.53745H159.194V2.03241H159.689ZM159.689 8.18586H159.194V8.68083H159.689V8.18586ZM164.06 8.18586H164.555V7.69089H164.06V8.18586ZM164.06 9.61137V10.1063H164.555V9.61137H164.06ZM159.689 9.61137V9.1164H159.194V9.61137H159.689ZM159.689 15.8361H159.194V16.3311H159.689V15.8361ZM168.598 15.8361H169.093V15.3411H168.598V15.8361ZM168.598 17.2616V17.7566H169.093V17.2616H168.598ZM151.326 17.2616H150.831V17.7566H151.326V17.2616ZM151.326 1.12563H168.598V0.135695H151.326V1.12563ZM168.103 0.630664V2.03241H169.093V0.630664H168.103ZM168.598 1.53745H159.689V2.52738H168.598V1.53745ZM159.194 2.03241V8.18586H160.184V2.03241H159.194ZM159.689 8.68083H164.06V7.69089H159.689V8.68083ZM163.565 8.18586V9.61137H164.555V8.18586H163.565ZM164.06 9.1164H159.689V10.1063H164.06V9.1164ZM159.194 9.61137V15.8361H160.184V9.61137H159.194ZM159.689 16.3311H168.598V15.3411H159.689V16.3311ZM168.103 15.8361V17.2616H169.093V15.8361H168.103ZM168.598 16.7666H151.326V17.7566H168.598V16.7666ZM151.821 17.2616V0.630664H150.831V17.2616H151.821Z" fill="black" mask="url(#path-1-outside-1_67_477)"/>
</g>
<path d="M7.49741 12.5208H1.24893V11.1191H22.0851V12.5208H15.8129V27.75H7.49741V12.5208ZM26.0502 11.1191H32.9877L40.3528 27.75H31.3721L28.8774 22.238H23.6506L21.5123 27.75H19.7779L26.0502 11.1191ZM28.2122 20.7888L26.0502 15.9658L24.1733 20.7888H28.2122ZM54.4781 17.0824C56.363 17.5893 57.7726 18.2624 58.7071 19.1019C59.6416 19.9255 60.1089 21.0026 60.1089 22.3331C60.1089 23.3943 59.7763 24.3446 59.111 25.1841C58.4458 26.0236 57.4638 26.6809 56.165 27.156C54.882 27.6312 53.3219 27.8688 51.4846 27.8688C49.3146 27.8688 47.3981 27.5916 45.735 27.0372C44.0877 26.467 42.7969 25.778 41.8624 24.9703L42.6464 23.9011C43.47 24.5505 44.5075 25.1049 45.7588 25.5642C47.01 26.0236 48.3564 26.2532 49.7977 26.2532C50.7322 26.2532 51.437 26.1186 51.9122 25.8493C52.4032 25.5801 52.6487 25.1999 52.6487 24.7089C52.6487 23.8536 51.8013 23.1884 50.1066 22.7132L47.018 21.8104C45.339 21.3035 44.0402 20.5987 43.1216 19.6959C42.2187 18.7931 41.7673 17.7239 41.7673 16.4885C41.7673 15.4589 42.092 14.5244 42.7414 13.685C43.3908 12.8455 44.3332 12.1882 45.5687 11.713C46.82 11.222 48.3168 10.9765 50.059 10.9765C51.7221 10.9765 53.2506 11.1666 54.6444 11.5467C56.0541 11.9269 57.2024 12.3862 58.0894 12.9247L57.3054 14.0176C56.5609 13.5899 55.666 13.2257 54.6207 12.9247C53.5911 12.6238 52.5062 12.4733 51.3658 12.4733C50.3679 12.4733 49.5997 12.6317 49.0612 12.9485C48.5385 13.2494 48.2772 13.6691 48.2772 14.2077C48.2772 14.6195 48.4751 14.9838 48.8711 15.3006C49.2671 15.6015 50.0194 15.9024 51.1282 16.2034L54.4781 17.0824ZM62.9701 11.1191H71.3093V27.75H62.9701V11.1191ZM71.3093 19.4108L75.2057 11.1191H83.4974L79.3397 19.4108L84.6141 27.75H76.2273L71.3093 19.4108ZM88.5869 16.6786V27.75H87.1852V11.1191H94.1227L97.5914 18.0565L100.347 11.1191H107.95V27.75H100.347V15.2768L95.5007 27.75H93.4337L88.5869 16.6786ZM116.669 11.1191H123.607L130.972 27.75H121.991L119.497 22.238H114.27L112.131 27.75H110.397L116.669 11.1191ZM118.831 20.7888L116.669 15.9658L114.792 20.7888H118.831ZM134.412 12.5208H128.164V11.1191H149V12.5208H142.728V27.75H134.412V12.5208ZM151.826 11.1191H169.098V12.5208H160.189V18.6743H164.56V20.0998H160.189V26.3245H169.098V27.75H151.826V11.1191Z" fill="black"/>
<defs>
<clipPath id="clip0_67_477">
<rect width="170" height="8" fill="white" transform="translate(0.25 0.25)"/>
</clipPath>
</defs>
</svg>
